<?xml version="1.0" encoding="iso-8859-1"?>
<!-- Generator: Adobe Illustrator 19.0.0, SVG Export Plug-In . SVG Version: 6.00 Build 0)  -->
<svg version="1.1" id="Capa_1" xmlns="http://www.w3.org/2000/svg" xmlns:xlink="http://www.w3.org/1999/xlink" x="0px" y="0px"
	 viewBox="0 0 376.4 376.4" style="enable-background:new 0 0 376.4 376.4;" xml:space="preserve">
<g>
	<g>
		<g>
			<path d="M321.2,54.981c-33.6-33.6-80.8-54.8-132.8-54.8s-99.2,21.2-133.2,55.2S0,136.581,0,188.581c0,48,18,92.4,48.4,126
				c30,33.6,72,56.4,120,61.6c4,0.4,8-2.4,8.4-6.8c0.4-4-2.4-8-6.8-8.4c-44-4.8-82.8-25.6-110.4-56.4c-27.6-30.8-44.4-71.6-44.4-116
				c0-48,19.6-91.2,50.8-122.4c31.2-31.6,74.4-50.8,122.4-50.8s91.2,19.6,122.4,50.8s50.8,74.8,50.8,122.4c0,14.4-1.6,28.8-5.2,42.8
				c-3.6,14-8.8,27.2-15.6,40c-2,3.6-0.4,8.4,3.2,10c3.6,2,8.4,0.4,10-3.2c7.6-13.6,13.2-28.4,16.8-43.6c4-15.2,5.6-30.8,5.6-46.4
				C376.4,136.181,355.2,88.981,321.2,54.981z"/>
			<path d="M188,41.381c-40.8,0-77.2,16.4-104,43.2c-26.4,26.4-43.2,63.2-43.2,104c0,36,13.2,69.6,35.2,95.2
				c22,26,52.8,44,88.4,49.6c4,0.8,8-2,8.4-6.4c0.8-4-2-8-6.4-8.4c-32-5.2-59.6-21.6-79.6-44.8c-18.4-21.2-29.6-48.4-31.2-78h18.8
				c4,0,7.6-3.2,7.6-7.6c0-4-3.2-7.6-7.6-7.6H55.6c2-33.6,16-63.6,38.4-85.6c22.4-22.4,52.4-36.4,85.6-38.4v18.8
				c0,4,3.2,7.6,7.6,7.6c4,0,7.6-3.2,7.6-7.6v-18.8c33.6,2,63.6,16,85.6,38.4c22.4,22.4,36.4,52.4,38.4,85.6H300
				c-4,0-7.6,3.2-7.6,7.6c0,4,3.2,7.6,7.6,7.6h18.8c-0.4,5.2-0.8,10.4-1.6,15.6c-1.2,7.6-3.2,15.2-6,22.4c-1.6,4,0.8,8,4.4,9.6
				c4,1.6,8-0.8,9.6-4.4c2.8-8,5.2-16.4,6.8-24.8c2.8-8.4,3.2-16.8,3.2-25.6c0-40.4-16.4-77.2-43.2-104
				C265.6,58.181,228.8,41.381,188,41.381z"/>
			<path d="M212,188.581c0-6.4-2.8-12.4-6.8-16.8c-2.4-2.4-5.6-4.4-9.2-5.6v-61.2c0-4-3.2-7.6-7.6-7.6c-4,0-7.6,3.2-7.6,7.6v61.2
				c-3.2,1.2-6.4,2.8-8.8,5.2l-0.4,0.4c-2.4,2.4-4.4,5.6-5.6,9.2h-46c-4,0-7.6,3.2-7.6,7.6c0,4,3.2,7.6,7.6,7.6h45.6
				c1.2,3.6,3.2,6.8,5.6,9.2c4.4,4.4,10.4,6.8,16.8,6.8c6.8,0.4,12.8-2.4,17.2-6.8C209.6,200.981,212,194.981,212,188.581z
				 M194.4,194.181c-1.6,1.6-3.6,2.4-6,2.4c-2.4,0-4.8-0.8-6-2.4c-1.6-0.8-2.8-3.2-2.8-5.6c0-2.4,0.8-4.8,2.4-6c0,0,0,0,0.4-0.4
				c1.6-1.6,3.6-2.4,6-2.4s4.8,0.8,6,2.4c1.6,1.6,2.4,3.6,2.4,6C196.8,190.581,196,192.981,194.4,194.181z"/>
			<path d="M317.2,287.381h-8.8v-7.6c-0.4-13.2-5.6-25.2-14.4-34c-8.4-8.4-20.4-13.6-33.6-13.6s-25.2,5.2-33.6,14
				c-8.8,8.8-14,20.8-14,33.6v7.6H204c-3.2,0-6,1.2-8,3.2s-3.2,4.8-3.2,8v66c0,3.2,1.2,6,3.2,8s4.8,3.2,8,3.2h113.2
				c3.2,0,6-1.2,8-3.2s3.2-4.8,3.2-8v-66c0-3.2-1.2-6-3.2-8S320.4,287.381,317.2,287.381z M227.6,279.381c0-8.4,3.6-16.8,9.6-22.8
				s14-9.6,23.2-9.6s17.2,3.6,23.2,9.2c6,6,9.6,14,9.6,23.2v7.6h-65.6V279.381z M313.2,360.981H207.6v-58.8h12.8h80h12.8V360.981z"
				/>
			<path d="M272,323.781c0-3.2-1.2-6-3.6-8.4c-2-2-4.8-3.2-8-3.2s-6,1.2-8.4,3.6c-2,2-3.2,4.8-3.2,8c0,2.4,0.8,4.4,2,6.4
				c0.8,1.6,2,2.8,3.6,3.6l-4.4,16.8c-0.4,1.2,0.4,2,1.2,2.4h0.4h17.6c1.2,0,2-0.8,2-2v-0.4l-4.4-16.8c1.2-1.2,2.4-2.4,3.2-3.6
				C271.2,328.181,272,326.181,272,323.781z"/>
		</g>
	</g>
</g>
<g>
</g>
<g>
</g>
<g>
</g>
<g>
</g>
<g>
</g>
<g>
</g>
<g>
</g>
<g>
</g>
<g>
</g>
<g>
</g>
<g>
</g>
<g>
</g>
<g>
</g>
<g>
</g>
<g>
</g>
</svg>
